PathFileType	4	(X/Y/Z)	c:/Users/goper/Files/vsCode/490R/osim_files/C12/C12_SSWS_05.trc
DataRate	CameraRate	NumFrames	NumMarkers	Units                	OrigDataRate	OrigDataStartFrame	OrigNumFrames
120.00	120.00	4	36	mm	120.0	613	1225
                Frame#	Time	LPSIS			LASIS			LTH1			LTH2			LTH3			LTH4			LLFE			LMFE			LSH1			LSH2			LSH3			LSH4			LLMAL			LMMAL			LCAL			LMTP5			LTOE			LMTP1			RPSIS			RASIS			RTH1			RTH2			RTH3			RTH4			RLFE			RMFE			RSH1			RSH2			RSH3			RSH4			RLMAL			RMMAL			RCAL			RMTP1			RTOE			RMTP5		
		X1	Y1	Z1	X2	Y2	Z2	X3	Y3	Z3	X4	Y4	Z4	X5	Y5	Z5	X6	Y6	Z6	X7	Y7	Z7	X8	Y8	Z8	X9	Y9	Z9	X10	Y10	Z10	X11	Y11	Z11	X12	Y12	Z12	X13	Y13	Z13	X14	Y14	Z14	X15	Y15	Z15	X16	Y16	Z16	X17	Y17	Z17	X18	Y18	Z18	X19	Y19	Z19	X20	Y20	Z20	X21	Y21	Z21	X22	Y22	Z22	X23	Y23	Z23	X24	Y24	Z24	X25	Y25	Z25	X26	Y26	Z26	X27	Y27	Z27	X28	Y28	Z28	X29	Y29	Z29	X30	Y30	Z30	X31	Y31	Z31	X32	Y32	Z32	X33	Y33	Z33	X34	Y34	Z34	X35	Y35	Z35	X36	Y36	Z36

613	5.10000	77.41228	1021.96112	363.14206	-102.96667	983.91888	402.01578	-97.50164	703.57971	456.86972	-117.22485	664.77838	451.83173	-153.54118	729.74353	456.67871	-167.66232	686.88861	451.60272	-216.25935	520.64288	399.44608	-208.47241	514.39862	276.01993	-190.88472	411.27396	418.83951	-208.93675	367.26245	425.26089	-248.14781	428.66364	411.00818	-257.67517	382.06943	414.87128	-324.22195	98.17116	386.32474	-333.24039	104.58028	303.83353	-267.10904	58.05487	348.11682	-467.76205	82.13657	404.78699	-503.53864	129.40480	334.29538	-484.75226	85.53175	298.15231	92.40553	1027.56458	251.78348	-79.83695	989.36194	144.43652	99.08832	732.54071	109.64874	106.43753	688.32739	118.44813	38.49713	713.94788	107.86129	55.74347	670.21564	115.52258	159.27618	517.82819	156.58463	144.00169	514.11127	288.84445	256.56937	456.60126	140.51871	275.22787	417.30066	134.80890	203.63832	421.73999	146.28668	230.72386	389.36218	138.46387	400.43146	154.33095	187.27287	381.47656	160.96451	269.27820	483.15668	146.05962	225.99051	298.07324	47.53154	273.29721	254.86452	57.88378	243.41418	292.98798	35.29562	167.63599
614	5.10833	64.02882	1021.90161	364.51877	-115.91471	983.76434	402.85217	-110.35806	704.39276	456.25104	-129.73534	665.58630	451.28781	-166.56097	730.26709	456.49680	-180.08211	687.24445	451.14651	-228.08617	521.01807	400.30487	-219.64803	514.64899	275.92505	-203.08476	412.34970	417.70074	-220.92082	368.22290	424.21692	-260.57538	429.52100	410.19165	-269.64319	382.84924	414.27829	-329.04660	97.34045	386.24658	-339.43939	102.69832	303.01129	-269.80814	59.70541	348.22739	-471.75995	74.43578	404.32428	-510.32788	119.53471	334.06122	-488.63449	76.75407	297.75647	78.92075	1026.97156	252.76012	-93.67306	988.37244	145.14844	85.33369	731.61627	110.60792	92.94128	687.56897	119.04659	24.74343	713.05585	108.54077	41.99528	669.28931	116.06218	145.56323	516.99286	156.55772	130.63403	512.82104	288.95181	244.17004	457.95496	140.45839	263.21558	418.80322	134.60345	191.95422	421.72787	146.11366	220.03983	390.36319	137.99211	395.24689	158.08879	186.70215	375.98038	164.99428	268.17267	477.70679	153.41402	225.16634	296.96426	47.90887	273.13815	254.14023	58.00576	243.36888	292.73318	35.13864	167.24280
615	5.11667	50.58476	1022.30133	365.84958	-128.97552	984.12244	403.67117	-121.61961	706.52972	456.45798	-141.45724	666.79291	450.83997	-179.02834	731.19525	456.19534	-192.12814	688.17700	450.79990	-239.75328	522.34357	401.35486	-228.86807	515.14984	275.69104	-215.64525	414.36118	417.97534	-232.91127	370.12280	424.63461	-273.54279	430.58322	409.00302	-281.73953	384.01828	414.21817	-333.21667	96.48855	386.39340	-342.87106	101.30315	303.51038	-272.14307	61.31192	348.55817	-474.82593	67.73277	404.28201	-514.93011	111.31155	333.90271	-491.78857	69.62442	297.60895	65.33535	1026.93042	253.48970	-107.50463	987.81238	145.84590	71.06927	730.90948	111.56497	78.43526	686.63092	120.01981	10.46284	712.29919	109.35730	27.84000	668.71570	116.62059	130.72105	516.26074	156.07280	116.54049	511.54611	288.90009	230.98062	459.44647	140.09879	251.40770	421.35605	133.90889	179.60255	421.95624	145.56639	208.51186	391.09036	137.33553	389.26822	163.04140	185.47528	369.59915	169.23843	266.93552	471.48657	161.62207	224.41434	295.80212	48.39356	273.11499	253.25136	58.25565	243.07440	292.58154	34.76646	167.27953
616	5.12500	37.49002	1023.34125	366.88065	-141.96095	984.85620	404.30054	-133.51630	708.18713	456.27368	-153.00162	668.30396	450.61472	-191.32388	732.29425	455.81577	-203.79770	689.16284	450.48361	-252.19037	524.67572	401.93143	-237.24416	515.93677	275.96393	-227.95377	416.73816	419.41269	-244.52762	372.29581	426.06400	-286.03726	431.59656	409.00418	-293.37457	385.17194	414.43091	-337.11328	95.79206	386.81000	-345.42795	100.95802	304.24884	-274.25330	62.91284	348.83307	-477.42520	61.78881	404.71152	-518.70490	104.45453	334.50772	-494.19235	63.51171	297.88980	51.66814	1027.24622	254.07536	-121.60709	987.68835	146.84294	56.31815	730.22675	112.49567	63.60563	685.90302	120.76086	-4.16637	711.91443	110.10121	12.80403	668.00800	117.31631	115.99456	515.81445	155.55508	101.43476	510.45218	288.63101	216.80719	460.98688	139.62906	238.40718	423.32104	133.34317	166.56921	422.54608	144.77014	196.29053	392.22046	136.56703	382.49023	168.28642	184.01921	362.33688	173.63661	265.51920	464.14767	170.27937	223.74342	294.28943	48.82298	273.22174	253.77745	57.76728	243.36691	291.83282	35.06044	167.35051
